<svg width="32" height="32" viewBox="0 0 32 32" fill="none" xmlns="http://www.w3.org/2000/svg">
<path d="M22.027 9.06797C21.549 8.792 20.937 8.95597 20.661 9.43399L14.266 20.511L10.688 17.211C10.31 16.808 9.67801 16.787 9.27498 17.165C8.872 17.543 8.85098 18.175 9.22902 18.579L13.801 22.796C14.179 23.199 14.811 23.2199 15.214 22.842C15.3359 22.7279 22.3939 10.435 22.3939 10.435C22.669 9.95603 22.505 9.344 22.027 9.06797ZM16 0C7.16298 0 0 7.16298 0 16C0 24.837 7.16298 32 16 32C24.837 32 32 24.837 32 16C32 7.16298 24.837 0 16 0ZM16 30C8.26797 30 2 23.732 2 16C2 8.26797 8.26797 2 16 2C23.732 2 30 8.26797 30 16C30 23.732 23.732 30 16 30Z" fill="white"/>
</svg>
