<svg width="22" height="24" viewBox="0 0 22 24" fill="none" xmlns="http://www.w3.org/2000/svg">
<path d="M11.594 12.4759C12.1072 12.4066 12.467 11.9345 12.3978 11.4214C12.3285 10.9083 11.8564 10.5486 11.3433 10.6177C11.2303 10.6329 11.1148 10.6407 11 10.6407C9.60425 10.6407 8.4687 9.50513 8.4687 8.10942C8.4687 6.71372 9.60425 5.57817 11 5.57817C12.3957 5.57817 13.5312 6.71372 13.5312 8.10942C13.5312 8.24766 13.52 8.38613 13.4981 8.52103C13.4148 9.03206 13.7615 9.51389 14.2725 9.59719C14.7841 9.68044 15.2653 9.33375 15.3486 8.82277C15.3869 8.58839 15.4062 8.34839 15.4062 8.10938C15.4062 5.67975 13.4296 3.70312 11 3.70312C8.57037 3.70312 6.59375 5.67975 6.59375 8.10938C6.59375 10.539 8.57037 12.5156 11 12.5156C11.1984 12.5156 11.3983 12.5022 11.594 12.4759Z" fill="black"/>
<path d="M19.5671 18.5912C18.8459 18.2129 17.8558 17.8942 16.6242 17.6439C16.1165 17.5409 15.6219 17.8686 15.5188 18.376C15.4157 18.8833 15.7435 19.3783 16.2508 19.4814C18.1506 19.8674 18.9295 20.3307 19.1542 20.5554C18.9887 20.7212 18.4352 21.1376 16.8093 21.529C15.2121 21.9134 13.1491 22.1252 11 22.1252C8.85092 22.1252 6.78791 21.9134 5.19078 21.529C3.56478 21.1376 3.01137 20.7213 2.84586 20.5554C3.07053 20.3307 3.84936 19.8674 5.7492 19.4814C6.25658 19.3783 6.58433 18.8833 6.48125 18.376C6.37817 17.8686 5.88317 17.541 5.37584 17.6439C4.14425 17.8942 3.15411 18.2129 2.43294 18.5912C1.43028 19.1171 0.921875 19.7785 0.921875 20.5569C0.921875 21.7201 2.05466 22.6204 4.28872 23.2329C6.09364 23.7277 8.47709 24.0002 11 24.0002C13.5229 24.0002 15.9064 23.7277 17.7113 23.2329C19.9453 22.6204 21.0781 21.7201 21.0781 20.5569C21.0781 19.7785 20.5697 19.1171 19.5671 18.5912Z" fill="black"/>
<path d="M10.2075 19.8134C10.3793 20.0852 10.6785 20.25 11 20.25C11.3215 20.25 11.6207 20.0852 11.7925 19.8134C12.652 18.4535 13.7708 17.2607 14.8527 16.1072C16.9669 13.8534 19.1529 11.5228 19.1562 8.06137C19.1537 5.89153 18.3011 3.86006 16.7553 2.34113C15.2188 0.831422 13.1749 0 11 0C8.82645 0 6.78978 0.8325 5.26517 2.34413C3.73644 3.85987 2.89316 5.89036 2.89062 8.06344C2.89395 11.5284 5.06937 13.8632 7.17317 16.1211C8.24398 17.2703 9.35122 18.4587 10.2075 19.8134ZM11 1.875C14.4596 1.875 17.2773 4.65122 17.2812 8.06161C17.2787 10.7803 15.5207 12.6544 13.4852 14.8245C12.6427 15.7228 11.779 16.6435 11.0006 17.6713C10.2295 16.6508 9.37677 15.7356 8.54502 14.8429C6.51847 12.6679 4.7683 10.7895 4.76562 8.06358C4.76961 4.59333 7.50809 1.875 11 1.875Z" fill="black"/>
</svg>
